<svg width="40" height="42" viewBox="0 0 40 42" fill="none" xmlns="http://www.w3.org/2000/svg">
<g id="Icon Book">
<path id="Vector" d="M19.9852 40.0411C15.707 35.308 9.90496 32.2421 3.59956 31.3827C2.88187 31.3029 2.21903 30.9588 1.73897 30.4168C1.25891 29.8748 0.995673 29.1733 1.00005 28.4477V4.82045C1.00003 4.3965 1.09139 3.97759 1.26786 3.59252C1.44434 3.20745 1.70173 2.86536 2.02233 2.5898C2.33729 2.31925 2.70592 2.11914 3.10375 2.00275C3.50158 1.88636 3.91951 1.85636 4.32976 1.91474C10.3591 2.92031 15.8748 5.93981 19.9852 10.4851V40.0411Z" stroke="#26F93B" stroke-width="2" stroke-linecap="round" stroke-linejoin="round"/>
<path id="Vector_2" d="M19.9851 40.0411C24.2634 35.308 30.0654 32.2421 36.3708 31.3827C37.0885 31.3029 37.7513 30.9588 38.2314 30.4168C38.7114 29.8748 38.9747 29.1733 38.9703 28.4477V4.82045C38.9703 4.3965 38.879 3.97759 38.7025 3.59252C38.526 3.20745 38.2686 2.86536 37.948 2.5898C37.6331 2.31925 37.2644 2.11914 36.8666 2.00275C36.4688 1.88636 36.0508 1.85636 35.6406 1.91474C29.6112 2.92031 24.0955 5.93981 19.9851 10.4851V40.0411Z" stroke="#26F93B" stroke-width="2" stroke-linecap="round" stroke-linejoin="round"/>
</g>
</svg>
