<svg width="37" height="38" viewBox="0 0 37 38" fill="none" xmlns="http://www.w3.org/2000/svg">
<g id="Icon Sell">
<path id="Vector" d="M4.54941 19.9935H26.5756L29.2683 6.46436H2.34141C2.14449 6.46508 1.95014 6.5092 1.77203 6.59361C1.59393 6.67802 1.43643 6.80066 1.31062 6.95288C1.18481 7.10511 1.09376 7.28321 1.04389 7.47464C0.994021 7.66606 0.986546 7.86615 1.02199 8.0608L3.23 18.8841C3.2815 19.1971 3.44295 19.4811 3.68503 19.6846C3.92711 19.8882 4.23379 19.9978 4.54941 19.9935V19.9935Z" stroke="#0DC3FF" stroke-width="2" stroke-linecap="round" stroke-linejoin="round"/>
<path id="Vector_2" d="M29.2682 6.4644L30.3992 2.13507C30.4612 1.82948 30.6265 1.55483 30.8669 1.3576C31.1073 1.16037 31.4082 1.05267 31.7186 1.05273H36" stroke="#0DC3FF" stroke-width="2" stroke-linecap="round" stroke-linejoin="round"/>
<path id="Vector_3" d="M26.5754 19.9937L25.4445 25.6759C25.3824 25.9815 25.2172 26.2561 24.9768 26.4534C24.7363 26.6506 24.4355 26.7583 24.1251 26.7582H7.72662" stroke="#0DC3FF" stroke-width="2" stroke-linecap="round" stroke-linejoin="round"/>
<path id="Vector_4" d="M9.07297 36.2288C9.81653 36.2288 10.4193 35.6231 10.4193 34.8759C10.4193 34.1287 9.81653 33.5229 9.07297 33.5229C8.3294 33.5229 7.72662 34.1287 7.72662 34.8759C7.72662 35.6231 8.3294 36.2288 9.07297 36.2288Z" stroke="#0DC3FF" stroke-width="2" stroke-linecap="round" stroke-linejoin="round"/>
<path id="Vector_5" d="M22.5366 36.2288C23.2801 36.2288 23.8829 35.6231 23.8829 34.8759C23.8829 34.1287 23.2801 33.5229 22.5366 33.5229C21.793 33.5229 21.1902 34.1287 21.1902 34.8759C21.1902 35.6231 21.793 36.2288 22.5366 36.2288Z" stroke="#0DC3FF" stroke-width="2" stroke-linecap="round" stroke-linejoin="round"/>
</g>
</svg>
