<svg width="37" height="41" viewBox="0 0 37 41" fill="none" xmlns="http://www.w3.org/2000/svg">
<path d="M18.4998 29.7139V32.6741" stroke="#F9A526" stroke-width="2" stroke-linecap="round" stroke-linejoin="round"/>
<path d="M18.4999 15.03V17.7851" stroke="#F9A526" stroke-width="2" stroke-linecap="round" stroke-linejoin="round"/>
<path d="M18.5 39.8841C28.7083 39.8841 36 36.2497 36 28.1604C36 19.3677 31.625 13.5059 22.875 9.10952L26.3167 4.65454C26.4915 4.36224 26.5864 4.02869 26.5916 3.68769C26.5968 3.34669 26.5122 3.01037 26.3464 2.71281C26.1805 2.41525 25.9394 2.16703 25.6473 1.99332C25.3553 1.8196 25.0227 1.72656 24.6833 1.72363H12.3167C11.9773 1.72656 11.6447 1.8196 11.3527 1.99332C11.0606 2.16703 10.8195 2.41525 10.6536 2.71281C10.4878 3.01037 10.4032 3.34669 10.4084 3.68769C10.4136 4.02869 10.5085 4.36224 10.6833 4.65454L14.125 9.13883C5.375 13.5645 1 19.4263 1 28.219C1 36.2497 8.29167 39.8841 18.5 39.8841Z" stroke="#F9A526" stroke-width="2" stroke-linecap="round" stroke-linejoin="round"/>
<path d="M15.5831 28.3655C15.939 28.79 16.3869 29.1269 16.8925 29.3505C17.3981 29.574 17.9479 29.6782 18.4998 29.6551C19.3433 29.7129 20.1763 29.4398 20.8236 28.8932C21.4708 28.3466 21.882 27.5691 21.9706 26.7242C21.882 25.8793 21.4708 25.1018 20.8236 24.5552C20.1763 24.0086 19.3433 23.7355 18.4998 23.7933C17.6563 23.8511 16.8233 23.578 16.1761 23.0314C15.5288 22.4848 15.1176 21.7073 15.029 20.8624C15.1105 20.0145 15.5197 19.2325 16.1687 18.6845C16.8176 18.1365 17.6546 17.8661 18.4998 17.9315C19.042 17.8981 19.5848 17.986 20.0891 18.1887C20.5934 18.3914 21.0467 18.704 21.4165 19.1038" stroke="#F9A526" stroke-width="2" stroke-linecap="round" stroke-linejoin="round"/>
</svg>
